<svg t="1689258075187" class="icon" viewBox="0 0 1024 1024" version="1.1" xmlns="http://www.w3.org/2000/svg" p-id="1502" width="200" height="200"><path d="M874.666667 733.653333H149.333333a42.666667 42.666667 0 0 1-42.666666-42.666666V178.56a42.666667 42.666667 0 0 1 42.666666-41.6h725.333334a42.666667 42.666667 0 0 1 42.666666 41.6v513.28a42.666667 42.666667 0 0 1-42.666666 41.813333zM168.746667 672.213333h687.146666V198.826667H168.746667z" p-id="1503"></path><path d="M765.653333 618.666667H252.373333a10.666667 10.666667 0 0 1-10.666666-10.88V256a10.666667 10.666667 0 0 1 10.666666-10.666667h513.28a10.88 10.88 0 0 1 10.88 10.666667v352.426667a10.88 10.88 0 0 1-10.88 10.24z m140.8 267.733333h-789.333333a10.666667 10.666667 0 0 1-10.666667-10.666667V836.266667a10.88 10.88 0 0 1 10.666667-10.666667h789.333333a10.88 10.88 0 0 1 10.666667 10.666667v40.106666a10.666667 10.666667 0 0 1-10.666667 10.666667z" p-id="1504"></path><path d="M481.28 712.746667h61.44v123.52h-61.44z" p-id="1505"></path></svg>